<?xml version="1.0" standalone="no"?>
<!DOCTYPE svg PUBLIC "-//W3C//DTD SVG 1.1//EN" "http://www.w3.org/Graphics/SVG/1.1/DTD/svg11.dtd" >
<svg xmlns="http://www.w3.org/2000/svg" xmlns:xlink="http://www.w3.org/1999/xlink" version="1.1">
<metadata></metadata>
<defs>
<font id="pf_dintext_promedium" horiz-adv-x="1075" >
<font-face units-per-em="2048" ascent="1536" descent="-512" />
<missing-glyph horiz-adv-x="516" />
<glyph unicode="&#xfb01;" horiz-adv-x="1077" d="M43 827v187h119v143q0 98 31.5 166t87 110t128 60t152.5 18q104 0 198.5 -31.5t166.5 -109.5l-140 -156q-39 43 -93 67t-132 24q-49 0 -82 -13.5t-51 -35t-26.5 -49t-8.5 -56.5v-137h539v-1014h-232v827h-307v-827h-231v827h-119z" />
<glyph unicode="&#xfb02;" horiz-adv-x="1122" d="M43 827v187h119v137q0 98 30.5 165.5t83 108.5t124 59.5t151.5 18.5q47 0 149.5 -12t239.5 -66l2 -1122q0 -57 25.5 -77.5t72.5 -20.5h41v-205h-88q-59 0 -110.5 12.5t-90 43t-60 82.5t-21.5 130v1004q-53 18 -90 22t-60 4q-51 0 -84 -13t-51 -34.5t-25.5 -49t-7.5 -56.5 v-131h211v-187h-211v-827h-231v827h-119z" />
<glyph horiz-adv-x="0" />
<glyph horiz-adv-x="682" />
<glyph unicode=" "  horiz-adv-x="516" />
<glyph unicode="&#x09;" horiz-adv-x="516" />
<glyph unicode="&#xa0;" horiz-adv-x="516" />
<glyph unicode="!" horiz-adv-x="548" d="M154 0v231h243v-231h-243zM160 1425h229l-20 -1048h-189z" />
<glyph unicode="&#x22;" horiz-adv-x="735" d="M117 985v440h192v-440h-192zM416 985v440h192v-440h-192z" />
<glyph unicode="#" horiz-adv-x="1118" d="M39 428v160h207l35 252h-183v161h207l60 422h184l-60 -422h203l60 422h184l-59 -422h194v-161h-217l-37 -252h195v-160h-217l-60 -428h-186l59 428h-200l-60 -428h-188l61 428h-182zM430 588h203l37 252h-203z" />
<glyph unicode="$" d="M53 180l140 180q70 -59 142.5 -95t156.5 -46v383q-76 25 -147 57.5t-125 80.5t-87 113t-33 155q0 86 28 158.5t79 127t122.5 88t162.5 41.5v152h106v-152q100 -6 195.5 -38.5t181.5 -94.5q-4 -8 -21.5 -37.5t-37 -63.5t-37 -62.5t-23.5 -36.5q-68 45 -130 71.5t-128 34.5 v-367q98 -31 176 -66.5t133.5 -84.5t85 -115.5t29.5 -159.5q0 -92 -32 -166.5t-88 -127t-134 -82t-170 -35.5v-219h-106v219q-117 8 -227.5 52t-211.5 136zM348 1018q0 -57 44 -93t100 -59v328q-61 -10 -102.5 -54t-41.5 -122zM598 221q78 12 118 57t40 113q0 78 -46 117 t-112 63v-350z" />
<glyph unicode="%" horiz-adv-x="1761" d="M133 819v357q0 61 23.5 108t63.5 80t91 50.5t107 17.5q55 0 107.5 -17.5t92 -50.5t63.5 -80t24 -108v-357q0 -61 -24 -108t-63.5 -79t-92 -49.5t-107.5 -17.5t-106.5 17.5t-91.5 49.5t-63.5 79t-23.5 108zM313 825q0 -51 29 -76.5t76 -25.5t76.5 25.5t29.5 76.5v346 q0 49 -29.5 76t-76.5 27t-76 -26.5t-29 -76.5v-346zM354 -35l871 1495h184l-872 -1495h-183zM1057 248v356q0 61 23.5 108.5t63.5 80t91 50t106 17.5t107.5 -17.5t92.5 -50t63.5 -79.5t23.5 -109v-356q0 -61 -23.5 -108.5t-63.5 -79t-92 -49t-108 -17.5q-55 0 -106 17.5 t-91 49t-63.5 78.5t-23.5 109zM1237 254q0 -51 28.5 -76.5t75.5 -25.5t77 25.5t30 76.5v346q0 49 -29.5 75.5t-77.5 26.5q-47 0 -75.5 -26.5t-28.5 -75.5v-346z" />
<glyph unicode="&#x26;" horiz-adv-x="1329" d="M139 356q0 131 63.5 234.5t203.5 197.5q-27 33 -52.5 68t-46 72t-33 78t-12.5 88q0 76 23.5 139t70.5 109.5t119 72t170 25.5q86 0 182.5 -29t184.5 -104l-131 -170q-39 31 -71 50t-60.5 29.5t-57 13.5t-59.5 3q-74 0 -112 -40t-38 -95q0 -41 13.5 -69t48.5 -75l368 -485 q29 53 46.5 108.5t27.5 112.5l209 -45q-18 -92 -54 -184t-89 -170q57 -72 115.5 -146.5t115.5 -144.5h-270l-105 135q-78 -70 -168 -108.5t-188 -38.5q-106 0 -184 30.5t-129.5 81t-76 117t-24.5 139.5zM358 367q0 -72 50.5 -121t150.5 -49q63 0 122.5 31.5t100.5 68.5 q-66 84 -128 166t-128 166q-80 -53 -124 -119t-44 -143z" />
<glyph unicode="'" horiz-adv-x="514" d="M156 985v440h192v-440h-192z" />
<glyph unicode="(" horiz-adv-x="679" d="M117 625q0 131 31.5 253.5t86 234.5t126 213t151.5 187l135 -86q-68 -90 -121 -189t-89 -200.5t-54 -204t-18 -198.5q0 -104 19 -211t56 -209t89.5 -200.5t117.5 -184.5l-127 -98q-82 88 -154.5 190.5t-128 216t-88 236.5t-32.5 250z" />
<glyph unicode=")" horiz-adv-x="679" d="M74 -170q133 174 208.5 384t75.5 421q0 96 -18 198.5t-54 204t-89.5 200.5t-120.5 189l133 86q80 -86 152.5 -187t127 -213t86 -234.5t31.5 -253.5q0 -127 -32.5 -250t-88 -236.5t-128 -216t-154.5 -190.5z" />
<glyph unicode="*" horiz-adv-x="845" d="M82 1106q2 8 9 32.5t16.5 52.5t16.5 52.5t9 34.5l227 -96q0 14 -4 50t-7 73.5t-7 72.5t-4 49h184l-24 -245l227 96l51 -172l-235 -57l161 -183q-6 -6 -27.5 -22.5t-46 -33.5t-46 -32.5t-29.5 -21.5l-125 211l-129 -213l-149 110l163 185q-14 4 -47 12t-68.5 17 t-68.5 16.5t-47 11.5z" />
<glyph unicode="+" d="M49 514v184h391v383h195v-383h391v-184h-391v-387h-195v387h-391z" />
<glyph unicode="," horiz-adv-x="565" d="M129 -270l74 268h-68v285h281v-273l-158 -280h-129z" />
<glyph unicode="-" horiz-adv-x="851" d="M100 432v211h652v-211h-652z" />
<glyph unicode="." horiz-adv-x="552" d="M137 0v283h279v-283h-279z" />
<glyph unicode="/" horiz-adv-x="702" d="M-18 -86l516 1571h190l-516 -1571h-190z" />
<glyph unicode="0" d="M123 403v617q0 100 36 177t94 130t135 81t159 28t159.5 -28t136 -81t94.5 -130t36 -177v-617q0 -98 -36 -175.5t-94.5 -130t-136 -80t-159.5 -27.5t-159 27.5t-135 80t-94 130t-36 175.5zM358 412q0 -98 51.5 -150.5t137.5 -52.5t138 52t52 151v602q0 98 -52 150.5 t-138 52.5t-137.5 -52.5t-51.5 -150.5v-602z" />
<glyph unicode="1" d="M283 1026v248l215 151h219v-1425h-236v1167z" />
<glyph unicode="2" d="M104 0v211l562 676q59 76 59 151q0 68 -45 121t-137 53q-76 0 -129.5 -51t-67.5 -149l-233 37q12 88 50 159.5t95 122.5t131 78t154 27q90 0 167.5 -25t135 -73t90.5 -119.5t33 -167.5q0 -72 -27 -147t-76 -134l-452 -545h547v-225h-857z" />
<glyph unicode="3" d="M98 332l230 33q16 -80 71.5 -118t126.5 -38q92 0 150.5 61.5t58.5 161.5q0 98 -56 155.5t-159 57.5h-112v193h104q104 0 158.5 55t54.5 135q0 82 -56.5 134t-138.5 52q-59 0 -114.5 -38.5t-73.5 -126.5l-229 36q16 80 56 145.5t97.5 110.5t126 70t144.5 25 q113 0 194.5 -33t135 -87t79 -126t25.5 -152q0 -76 -43 -159.5t-140 -135.5q104 -53 150.5 -141t46.5 -170q0 -98 -32.5 -179t-93 -139.5t-144.5 -91t-187 -32.5q-70 0 -138 18.5t-126.5 58t-102.5 105.5t-63 160z" />
<glyph unicode="4" d="M57 207v201l494 1017h260l-487 -1001h346v395h235v-395h117v-217h-117v-207h-235v207h-613z" />
<glyph unicode="5" d="M106 330l234 41q16 -92 68.5 -129t126.5 -37q68 0 107.5 28.5t62 72.5t29.5 96.5t7 99.5q0 51 -8 98t-30.5 84t-61.5 59.5t-98 22.5q-51 0 -97.5 -30.5t-78.5 -92.5h-222v782h797v-219h-573v-309q55 49 116.5 65.5t118.5 16.5q98 0 168 -32t116 -90t68.5 -138t24.5 -176 q0 -121 -24.5 -222.5t-77 -175t-137.5 -114.5t-203 -41q-72 0 -141.5 15t-128 53t-101.5 103.5t-62 168.5z" />
<glyph unicode="6" d="M115 426q0 63 16 136t51 138l381 725h262l-307 -589q4 -4 4 -5q43 12 90 13q84 0 153 -31t117 -85t73.5 -127t25.5 -157q0 -121 -38 -206.5t-101.5 -141t-143.5 -81t-161 -25.5q-86 0 -163 27.5t-134.5 83t-91 137t-33.5 188.5zM350 430q0 -109 52.5 -166t140.5 -57 q78 0 136 57t58 166q0 111 -57 165t-137 54q-74 0 -133.5 -55t-59.5 -164z" />
<glyph unicode="7" d="M111 997v428h852v-213l-502 -1212h-254l489 1200h-350v-203h-235z" />
<glyph unicode="8" d="M92 418q0 45 12.5 93t37 91t60.5 77t85 54v6q-88 39 -127 119t-39 166q0 88 32.5 163t89 130t134.5 87t170 32q104 0 184 -32t134.5 -87t82 -130t27.5 -163t-42 -164t-124 -121v-4q49 -18 85 -53t60.5 -78t35.5 -92t11 -94q0 -96 -35.5 -175t-98 -135.5t-145.5 -87 t-175 -30.5t-175 30.5t-144.5 87t-98.5 135.5t-37 175zM326 424q0 -45 17 -85t47 -69.5t70 -47t87 -17.5t87 17.5t69.5 47t47 69.5t17.5 85t-17.5 83t-48 65.5t-70.5 44t-85 16.5q-43 0 -83 -16.5t-71 -44t-49 -65.5t-18 -83zM354 1022q0 -92 58.5 -139t134.5 -47 q37 0 72.5 12t62.5 35.5t43 58.5t16 80q0 92 -56 146.5t-138 54.5q-80 0 -136.5 -53.5t-56.5 -147.5z" />
<glyph unicode="9" d="M117 981q0 119 38 205t101 141t142 82t163 27q86 0 163 -28t134 -83t91 -137t34 -189q0 -63 -16.5 -135.5t-51.5 -138.5l-380 -725h-263l308 590q-4 4 -5 4q-43 -12 -90 -12q-84 0 -152.5 30.5t-116.5 84t-73.5 127t-25.5 157.5zM360 995q0 -111 57.5 -165t137.5 -54 q74 0 133.5 55.5t59.5 163.5q0 109 -52.5 166.5t-140.5 57.5q-78 0 -136.5 -57.5t-58.5 -166.5z" />
<glyph unicode=":" horiz-adv-x="555" d="M135 0v283h279v-283h-279zM135 565v285h279v-285h-279z" />
<glyph unicode=";" horiz-adv-x="555" d="M131 -270l72 268h-66v285h279v-273l-158 -280h-127zM137 565v285h279v-285h-279z" />
<glyph unicode="&#x3c;" d="M61 518v178l943 437v-209l-697 -318l697 -317v-207z" />
<glyph unicode="=" d="M47 299v184h979v-184h-979zM47 731v182h979v-182h-979z" />
<glyph unicode="&#x3e;" d="M63 82v207l697 317l-697 318v209l943 -437v-178z" />
<glyph unicode="?" horiz-adv-x="1044" d="M82 1022q16 102 59 179t104.5 129t136.5 78t157 26q98 0 177 -30t133 -82t84 -124t30 -154q0 -59 -24 -112t-57.5 -102.5t-74.5 -96.5t-75 -92t-57.5 -90t-23.5 -90v-74h-239v80q0 61 21.5 112.5t54 97.5t70.5 87t71 84t54.5 89t21.5 99q0 29 -10.5 59.5t-34 55.5 t-58.5 41t-84 16t-86 -19.5t-62.5 -50t-40 -70.5t-16.5 -79q-59 10 -115.5 17.5t-115.5 15.5zM410 0v231h241v-231h-241z" />
<glyph unicode="@" horiz-adv-x="1789" d="M113 684q0 168 61.5 311.5t169 249t256 165.5t322.5 60q160 0 296 -49t235 -139t155.5 -216t56.5 -278q0 -121 -25.5 -217t-76 -163.5t-123 -104.5t-166.5 -37q-25 0 -57.5 8.5t-64.5 24.5t-58.5 41t-38.5 57h-11q-25 -47 -88 -81.5t-143 -34.5q-59 0 -110.5 14t-91.5 44 t-62.5 76t-22.5 109q0 49 17.5 93.5t53.5 78t87 53t119 19.5h215v57q0 47 -34 82t-128 35q-66 0 -104.5 -19.5t-75.5 -52.5l-105 117q125 121 306 121q68 0 126 -13.5t101 -44t68.5 -83t25.5 -129.5l-2 -306q0 -41 25.5 -74.5t72.5 -33.5q96 0 147.5 88t51.5 272 q0 125 -46 225.5t-125 169t-182.5 105.5t-215.5 37q-139 0 -256 -50t-202 -136t-133 -203t-48 -250q0 -141 48 -259t135 -201t207 -129t265 -46q68 0 127 6t112.5 18.5t105.5 32t106 43.5l53 -149q-121 -47 -237.5 -74.5t-256.5 -27.5q-178 0 -331.5 53t-266 154.5t-176 248 t-63.5 332.5zM702 539q0 -33 32 -66t112 -33q76 0 124 32t48 97v58h-184q-72 0 -102 -24.5t-30 -63.5z" />
<glyph unicode="A" horiz-adv-x="1288" d="M4 0l539 1425h200l539 -1425h-262l-113 315h-528l-115 -315h-260zM451 526h383l-95 289l-94 293h-6l-92 -287z" />
<glyph unicode="B" horiz-adv-x="1265" d="M150 0v1425h569q109 0 192.5 -28.5t140 -79.5t85 -123t28.5 -158q0 -41 -9 -82t-31.5 -78.5t-60.5 -72.5t-95 -60v-8q55 -16 97 -51t69.5 -80t42 -95t14.5 -99q0 -92 -34 -168t-91 -130.5t-133 -83t-160 -28.5h-624zM397 225h318q57 0 100 16.5t70.5 44t41 63.5t13.5 75 t-13.5 75t-41 63.5t-70.5 45t-100 17.5h-318v-400zM397 834h289q115 0 168 55t53 133t-53 130t-168 52h-289v-370z" />
<glyph unicode="C" horiz-adv-x="1171" d="M98 530v365q0 106 33 204.5t98.5 173.5t166 119t233.5 44q188 0 316 -91.5t181 -240.5l-233 -92q-27 84 -93.5 136t-170.5 52q-72 0 -124 -24.5t-87 -66.5t-52.5 -95t-17.5 -109v-379q0 -59 17.5 -113.5t52.5 -97.5t87 -68.5t124 -25.5q102 0 169.5 54.5t94.5 142.5 l235 -99q-53 -156 -183 -243.5t-316 -87.5q-133 0 -233.5 42t-166 114.5t-98.5 172t-33 213.5z" />
<glyph unicode="D" horiz-adv-x="1306" d="M150 0v1425h518q160 0 288.5 -61t196.5 -203q39 -78 47 -184.5t8 -239.5q0 -150 -8 -260t-43 -194q-35 -80 -89 -134.5t-121.5 -87t-147.5 -47t-166 -14.5h-483zM397 225h244q90 0 151.5 25.5t98.5 72t53.5 112t16.5 145.5v266q0 190 -84 272t-240 82h-240v-975z" />
<glyph unicode="E" horiz-adv-x="1155" d="M150 0v1425h954v-225h-707v-373h602v-217h-602v-385h707v-225h-954z" />
<glyph unicode="F" horiz-adv-x="1116" d="M150 0v1425h954v-225h-707v-385h602v-215h-602v-600h-247z" />
<glyph unicode="G" horiz-adv-x="1265" d="M102 530v365q0 106 32 204.5t96.5 173.5t163 119t231.5 44q188 0 317 -91.5t182 -240.5l-233 -92q-27 84 -95.5 136t-172.5 52q-72 0 -123 -24.5t-84 -66.5t-49.5 -95t-16.5 -109v-385q0 -57 17.5 -112.5t52.5 -98.5t87 -69.5t124 -26.5q61 0 113.5 23.5t90 63.5t60.5 93 t23 111v61h-297v213h542v-280q0 -111 -41 -204t-111.5 -162t-169 -106.5t-210.5 -37.5q-135 0 -234.5 42t-165 114.5t-97.5 172t-32 213.5z" />
<glyph unicode="H" horiz-adv-x="1341" d="M150 0v1425h247v-598h549v598h246v-1425h-246v610h-549v-610h-247z" />
<glyph unicode="I" horiz-adv-x="548" d="M152 0v1425h249v-1425h-249z" />
<glyph unicode="J" horiz-adv-x="1001" d="M10 166l176 162q45 -47 100.5 -79t106.5 -32q43 0 83 9.5t73 37t52.5 76.5t19.5 127v958h247v-966q0 -133 -38.5 -223.5t-103 -144.5t-149.5 -77.5t-178 -23.5q-117 0 -215 45t-174 131z" />
<glyph unicode="K" horiz-adv-x="1306" d="M150 0v1425h249v-690l4 -2l240 293l336 399h295l-481 -569l528 -856h-293l-399 664l-232 -269v-395h-247z" />
<glyph unicode="L" horiz-adv-x="1155" d="M150 0v1425h247v-1200h707v-225h-954z" />
<glyph unicode="M" horiz-adv-x="1566" d="M150 0v1425h231l186 -407q59 -129 113.5 -256t110.5 -256h8l114 272l105 240l182 407h238v-1425h-248v846h-6l-76 -182l-104 -230l-111 -233h-199l-82 174l-135 299l-74 174l-6 -6v-842h-247z" />
<glyph unicode="N" horiz-adv-x="1417" d="M150 0v1425h229l399 -606l242 -385l4 4v987h248v-1425h-230l-440 664l-199 325l-6 -2v-987h-247z" />
<glyph unicode="O" horiz-adv-x="1249" d="M92 530v365q0 106 33 204.5t98.5 173.5t166 119t233.5 44q123 0 221 -41t167.5 -113t106.5 -171t37 -216v-365q0 -125 -38 -225t-107.5 -171t-168 -108.5t-218.5 -37.5q-133 0 -233.5 44t-166 118.5t-98.5 173t-33 206.5zM342 524q0 -59 17.5 -113.5t52 -97.5t87 -68.5 t124.5 -25.5q66 0 118 23.5t87.5 64.5t55 96.5t19.5 120.5v383q0 61 -19.5 114.5t-55 93.5t-87.5 63.5t-118 23.5q-72 0 -124.5 -24.5t-87 -66.5t-52 -95t-17.5 -109v-383z" />
<glyph unicode="P" horiz-adv-x="1210" d="M150 0v1425h555q100 0 188 -28.5t154.5 -84t104.5 -139t38 -194.5q0 -86 -34 -164t-95.5 -137.5t-147.5 -95t-190 -35.5h-326v-547h-247zM397 772h310q109 0 169 63.5t60 149.5q0 111 -65.5 163t-172.5 52h-301v-428z" />
<glyph unicode="Q" horiz-adv-x="1265" d="M100 530v365q0 106 33 204.5t98.5 173.5t165 119t232.5 44q123 0 222 -41t169 -113t106.5 -171t36.5 -216v-365q0 -154 -59 -272l176 -141l-135 -158l-174 135q-135 -106 -342 -106q-133 0 -232.5 44t-165 118.5t-98.5 173t-33 206.5zM348 526q0 -59 17.5 -113.5 t52.5 -97.5t87 -68.5t124 -25.5q74 0 133 39l-170 135l137 164q41 -33 83 -66.5t83 -66.5q16 49 16 100v340q0 63 -14 124t-48 108t-88 74.5t-132 27.5q-80 0 -134.5 -28.5t-87 -76.5t-46 -107.5t-13.5 -121.5v-340z" />
<glyph unicode="R" horiz-adv-x="1280" d="M150 0v1425h606q90 0 170 -28.5t139 -80.5t93 -129t34 -171q0 -137 -75 -239.5t-210 -151.5l281 -625h-279l-247 588h-265v-588h-247zM397 809h312q100 0 164.5 53.5t64.5 153.5t-61.5 145t-159.5 45h-320v-397z" />
<glyph unicode="S" horiz-adv-x="1165" d="M10 184l150 193q92 -86 200.5 -122t227.5 -36t191.5 49t72.5 146q0 86 -64.5 130t-195.5 64q-92 12 -181 34t-159 66t-112 117.5t-42 192.5q0 106 41 185t108.5 131t154.5 78t180 26q137 0 256.5 -31t222.5 -102l-123 -205q-90 59 -182 82.5t-170 23.5q-131 0 -186.5 -52 t-55.5 -128q0 -45 19.5 -74.5t62.5 -51t108.5 -37t157.5 -32.5q78 -14 154 -37.5t135 -69.5t95 -119t36 -183q0 -104 -43 -185t-116.5 -136.5t-171 -84t-206.5 -28.5q-141 0 -289.5 42t-275.5 154z" />
<glyph unicode="T" horiz-adv-x="1067" d="M10 1204v221h1041v-221h-398v-1204h-247v1204h-396z" />
<glyph unicode="U" horiz-adv-x="1306" d="M123 516v909h246v-890q0 -66 19.5 -123.5t56 -99.5t90 -66.5t120.5 -24.5q127 0 204 78t77 225v901h250v-919q0 -117 -40 -212t-110.5 -163t-169 -104.5t-213.5 -36.5q-121 0 -219 40t-167.5 110.5t-106.5 166.5t-37 209z" />
<glyph unicode="V" horiz-adv-x="1177" d="M2 1425h264l205 -651l115 -377h10l109 375l200 653h264l-481 -1425h-203z" />
<glyph unicode="W" horiz-adv-x="1718" d="M12 1423h264q41 -176 81 -348t79 -348l58 -260h8l65 258q43 156 73 265.5t52.5 187t37.5 135t32 110.5h188q51 -176 100.5 -352t96.5 -352l67 -254h9q14 59 26.5 125.5t24.5 126.5q35 160 77 346t85 360h262q-92 -358 -184.5 -712.5t-186.5 -712.5h-205 q-35 129 -70.5 257t-72.5 257q-29 115 -59.5 228.5t-61.5 228.5q-2 0 -3 -1t-3 -1q-35 -131 -68.5 -260t-68.5 -261q-4 -14 -13.5 -49t-22.5 -80t-26.5 -94t-27 -94t-22.5 -80t-13 -51h-207z" />
<glyph unicode="X" horiz-adv-x="1179" d="M0 0l461 729l-434 696h280l281 -491l282 491h279l-432 -696l461 -729h-279l-311 526l-309 -526h-279z" />
<glyph unicode="Y" horiz-adv-x="1140" d="M8 1425h264l172 -352q33 -68 64 -136.5t61 -137.5h4l127 280l170 346h263q-111 -211 -221.5 -419.5t-223.5 -419.5v-586h-235v586q-113 211 -222.5 419.5t-222.5 419.5z" />
<glyph unicode="Z" horiz-adv-x="1079" d="M61 0v213l662 993h-635v219h930v-202l-662 -996h662v-227h-957z" />
<glyph unicode="[" horiz-adv-x="589" d="M143 -205v1637h408v-168h-191v-1303h191v-166h-408z" />
<glyph unicode="\" horiz-adv-x="702" d="M-16 1485h190l516 -1571h-190z" />
<glyph unicode="]" horiz-adv-x="589" d="M45 -39h191v1303h-191v168h408v-1637h-408v166z" />
<glyph unicode="^" d="M49 575l404 848h178l403 -845h-207l-286 610l-287 -613h-205z" />
<glyph unicode="_" horiz-adv-x="1024" d="M0 -141h1024v-156h-1024v156z" />
<glyph unicode="`" horiz-adv-x="1032" d="M311 1481l221 73l168 -380l-137 -60z" />
<glyph unicode="a" horiz-adv-x="1021" d="M72 295q0 61 22.5 116.5t65.5 97.5t107.5 66.5t148.5 24.5h274v74q0 29 -9 55.5t-31.5 46t-61.5 31.5t-99 12q-84 0 -141 -21.5t-100 -62.5l-123 156q74 74 172.5 103.5t204.5 29.5q86 0 161.5 -15.5t133 -54.5t91.5 -103.5t34 -162.5v-688h-232v90l-4 2 q-41 -53 -113.5 -77.5t-150.5 -24.5q-162 0 -256 78.5t-94 226.5zM291 311q0 -23 9 -45t30.5 -39.5t55.5 -29t85 -11.5q39 0 76 7.5t66.5 23.5t50 43t24.5 68q2 12 2 30.5v65.5h-235q-88 0 -126 -33t-38 -80z" />
<glyph unicode="b" horiz-adv-x="1054" d="M119 0v1489h231v-571l4 -3q51 55 119 82t131 27q115 0 185.5 -46t110.5 -118t54.5 -160t14.5 -174q0 -90 -12.5 -185t-51.5 -173t-110.5 -128t-190.5 -50q-66 0 -134.5 23.5t-115.5 84.5l-4 -2v-96h-231zM350 508q0 -47 5 -100.5t24.5 -99.5t57.5 -76.5t104 -30.5 t103.5 29.5t57 74.5t24.5 99.5t5 103.5q0 51 -5 103.5t-24.5 95.5t-57.5 70.5t-103 27.5q-63 0 -101.5 -28.5t-58 -73t-25.5 -96.5t-6 -99z" />
<glyph unicode="c" horiz-adv-x="915" d="M57 506q0 137 40 235.5t105.5 162t151.5 92t176 28.5q203 0 347 -143l-150 -162q-90 94 -192 94q-117 0 -178.5 -73.5t-61.5 -233.5q0 -158 60.5 -231.5t176.5 -73.5q51 0 102.5 26.5t94.5 69.5l152 -160q-74 -72 -164 -110.5t-195 -38.5q-92 0 -176 29.5t-148.5 92 t-102.5 161t-38 235.5z" />
<glyph unicode="d" horiz-adv-x="1054" d="M98 514q0 86 16.5 177t59.5 166t118 122t191 47q66 0 128.5 -24.5t101.5 -73.5l4 2v557h231v-1487h-231v94l-4 4q-53 -59 -121 -83.5t-133 -24.5q-121 0 -192.5 47t-108.5 121.5t-48.5 169t-11.5 186.5zM336 494q0 -47 5 -98.5t25.5 -93.5t57.5 -68.5t102 -26.5 q63 0 101.5 29.5t59 74.5t25.5 97.5t5 99.5t-5 99t-24.5 96.5t-56.5 73t-101 28.5q-68 0 -105.5 -30t-58 -75t-25.5 -100t-5 -106z" />
<glyph unicode="e" horiz-adv-x="1038" d="M76 504q0 147 40 246.5t103.5 161t142 88t156.5 26.5q102 0 183 -35t137.5 -97.5t86 -152.5t29.5 -200v-101h-639q0 -47 12.5 -91t39 -77.5t67.5 -54t96 -20.5q45 0 114 21.5t126 74.5q37 -41 67.5 -81t67.5 -81q-86 -78 -186.5 -110.5t-196.5 -32.5q-80 0 -159.5 22.5 t-143 81t-103.5 157.5t-40 255zM319 604h390q-6 104 -60.5 157.5t-132.5 53.5q-80 0 -133 -55t-64 -156z" />
<glyph unicode="f" horiz-adv-x="618" d="M43 827v187h119v196q0 72 22.5 124t61.5 87t92 52.5t113 17.5h149v-201h-113q-53 0 -73.5 -29.5t-20.5 -76.5v-170h207v-187h-207v-827h-231v827h-119z" />
<glyph unicode="g" horiz-adv-x="1069" d="M88 483q0 90 12.5 185.5t52.5 174.5t114.5 130t199.5 51q66 0 129 -24.5t106 -77.5h5v92h227v-973q0 -129 -34 -216t-93 -140.5t-142 -77t-184 -23.5q-37 0 -82 6.5t-92 20.5t-93 37.5t-85 58.5l121 170q51 -37 113.5 -59.5t136.5 -22.5q96 0 152.5 53.5t56.5 155.5v94 h-4q-49 -57 -115 -82.5t-129 -25.5q-117 0 -190.5 45t-113.5 115.5t-54.5 158.5t-14.5 174zM324 506q0 -55 5 -108.5t24.5 -96.5t58.5 -68.5t104 -25.5q63 0 101 28.5t57.5 72.5t26 96.5t6.5 101.5q0 43 -4.5 96t-22.5 98t-56 76t-106 31t-105.5 -28.5t-58 -72.5 t-25.5 -97.5t-5 -102.5z" />
<glyph unicode="h" horiz-adv-x="1083" d="M150 0v1487h231v-572h6q47 51 119 80t141 29q72 0 135.5 -22.5t110.5 -67.5t73.5 -112.5t26.5 -155.5v-666h-231v602q0 98 -44 151.5t-138 53.5q-84 0 -141.5 -53.5t-57.5 -151.5v-602h-231z" />
<glyph unicode="i" horiz-adv-x="505" d="M137 0v1014h232v-1014h-232zM137 1212v213h232v-213h-232z" />
<glyph unicode="j" horiz-adv-x="542" d="M-16 -207h57q66 0 90.5 34t24.5 87v1102h233v-1137q0 -131 -74.5 -211t-224.5 -80h-106v205zM156 1212v213h233v-213h-233z" />
<glyph unicode="k" horiz-adv-x="1064" d="M131 0v1487h229v-891h7l196 225l176 193h283l-367 -396q104 -156 208 -310l208 -308h-270q-76 115 -148.5 227.5t-148.5 227.5q-35 -39 -72 -77t-72 -79v-299h-229z" />
<glyph unicode="l" horiz-adv-x="542" d="M131 268v1219h231v-1184q0 -57 26 -77.5t73 -20.5h41v-205h-88q-59 0 -110.5 12.5t-90.5 43t-60.5 82.5t-21.5 130z" />
<glyph unicode="m" horiz-adv-x="1705" d="M125 0v1014h231v-109q2 0 3 -1t3 -1q45 57 120 89t151 32q190 0 280 -145q66 68 147 106.5t175 38.5q154 0 250 -91t96 -265v-668h-229v604q0 98 -46 152.5t-145 54.5q-80 0 -135 -57.5t-55 -149.5v-604h-232v604q0 98 -47 152.5t-143 54.5q-80 0 -136.5 -57.5 t-56.5 -149.5v-604h-231z" />
<glyph unicode="n" horiz-adv-x="1083" d="M119 0v1016h231v-107h4q49 55 122 85t142 30q156 0 250.5 -89t94.5 -269v-666h-232v602q0 98 -44 151.5t-142 53.5q-84 0 -139.5 -53.5t-55.5 -151.5v-602h-231z" />
<glyph unicode="o" horiz-adv-x="1054" d="M86 506q0 82 11.5 155.5t39.5 131.5q53 113 159 173t245 60q115 0 206 -44t146 -126q39 -59 57 -144q17 -77 17 -170v-20q0 -117 -17.5 -199.5t-52.5 -144.5q-59 -96 -159.5 -144t-221.5 -48q-115 0 -205 38.5t-145 120.5q-80 119 -80 340v21zM319 504q0 -59 6.5 -108.5 t24.5 -86.5q23 -53 68 -82.5t104 -29.5q66 0 117 35.5t74 109.5q10 29 14 72t4 108q0 119 -26 178q-23 59 -69.5 88t-103.5 29q-59 0 -106 -30.5t-72 -84.5q-18 -41 -25 -90t-10 -108z" />
<glyph unicode="p" horiz-adv-x="1056" d="M123 -410v1424h229v-90l6 -2q51 57 117 79.5t131 22.5q119 0 191.5 -48t111.5 -124t51.5 -168t12.5 -180t-15.5 -179.5t-58.5 -166t-118.5 -122.5t-198.5 -48q-63 0 -125 23.5t-101 72.5h-4v-494h-229zM352 504q0 -47 5 -100.5t24.5 -97.5t57.5 -72.5t102 -28.5 q63 0 102 27.5t58.5 70.5t25.5 96.5t6 104.5q0 49 -4 102t-22.5 98.5t-56.5 74t-105 28.5q-66 0 -104 -29.5t-57 -75t-25.5 -98.5t-6.5 -100z" />
<glyph unicode="q" horiz-adv-x="1069" d="M109 487q0 96 15 192.5t58 173.5t120 124t200 47q66 0 123 -25.5t100 -78.5h4v94h232v-1428h-232v510h-4q-51 -55 -117.5 -81.5t-128.5 -26.5q-119 0 -190.5 45t-111.5 115.5t-54 159.5t-14 179zM346 504q0 -51 5 -103.5t24.5 -95.5t58.5 -70.5t105 -27.5q63 0 100 28.5 t57.5 72.5t26.5 96.5t6 99.5t-5 101t-24.5 100.5t-57.5 77t-101 30.5q-68 0 -106 -29.5t-58.5 -75.5t-25.5 -100.5t-5 -103.5z" />
<glyph unicode="r" horiz-adv-x="794" d="M131 -2v1016h227v-121h9q92 131 245 131q57 0 104.5 -12.5t88.5 -40.5l-86 -209q-43 27 -84 37t-82 10q-84 0 -137.5 -51t-53.5 -150v-610h-231z" />
<glyph unicode="s" horiz-adv-x="948" d="M33 141l125 166q72 -66 152.5 -93.5t172.5 -27.5q74 0 125 31t51 86q0 53 -43 79t-137 36q-68 8 -136.5 20.5t-123.5 43t-90 83.5t-35 142q0 78 31 137t82 99t119.5 60.5t146.5 20.5q117 0 211 -25.5t178 -89.5l-110 -176q-72 47 -142.5 67.5t-132.5 20.5 q-82 0 -123 -31.5t-41 -76.5q0 -51 57.5 -74t184.5 -37q61 -6 121.5 -23.5t106.5 -50t75 -86t29 -133.5q0 -76 -33 -135t-89 -101t-131 -63.5t-161 -21.5q-113 0 -224.5 30.5t-215.5 122.5z" />
<glyph unicode="t" horiz-adv-x="647" d="M68 827v189h118v264h226v-264h155v-189h-153v-510q0 -53 20.5 -83.5t73.5 -30.5h76v-203h-140q-113 0 -186.5 65.5t-73.5 188.5v573h-116z" />
<glyph unicode="u" horiz-adv-x="1091" d="M121 348v666h229v-604q0 -104 43 -155.5t146 -51.5q82 0 138 54t56 153v604h232v-1014h-232v100h-6q-47 -57 -118.5 -84.5t-139.5 -27.5q-158 0 -253 88t-95 272z" />
<glyph unicode="v" horiz-adv-x="983" d="M10 1014h250q35 -100 67.5 -204.5t67.5 -209.5q25 -72 49.5 -141.5t47.5 -141.5h6l88 283l137 414h250l-387 -1014h-187z" />
<glyph unicode="w" horiz-adv-x="1507" d="M10 1014h248q23 -72 42 -143.5t40 -143.5q29 -94 52.5 -188.5t51.5 -188.5h9q16 53 26 85t17.5 57.5t16.5 57.5t26 85l118 379h195q39 -123 77 -248t75 -250l49 -172h12q12 43 23.5 88t21.5 86q8 31 17.5 64.5t23.5 87t36.5 135.5t59.5 209h248q-84 -256 -167 -507 t-169 -507h-203q-37 117 -72.5 235.5t-70.5 237.5l-59 193h-4l-64 -217q-66 -225 -137 -449h-203z" />
<glyph unicode="x" horiz-adv-x="1026" d="M23 0l368 518l-352 496h276l197 -328l199 328h276l-352 -498l369 -516h-279l-213 342l-211 -342h-278z" />
<glyph unicode="y" horiz-adv-x="962" d="M0 1014h250l131 -373l100 -319h8l101 315l129 377h244l-447 -1219q-43 -117 -123 -161t-172 -44h-86v195h64q45 0 75.5 31.5t47.5 74.5l51 160z" />
<glyph unicode="z" horiz-adv-x="919" d="M63 0v193l510 622h-481v199h762v-189l-508 -616h508v-209h-791z" />
<glyph unicode="{" horiz-adv-x="589" d="M27 532v158q80 8 118.5 69.5t38.5 155.5v273q0 109 62.5 173t154.5 64h170v-159h-84q-25 0 -42 -14.5t-27 -36t-14.5 -47t-4.5 -50.5v-248q0 -57 -15 -100t-38.5 -74.5t-51.5 -51t-50 -30.5v-4q27 -10 54.5 -29.5t50 -51t36.5 -73.5t14 -98v-254q0 -25 2 -51t11.5 -47.5 t27 -35t47.5 -13.5h84v-158h-170q-84 0 -143 54.5t-70 146.5q-2 16 -3 34.5t-1 37.5v207v37.5t-2 35.5q-6 84 -45 130t-110 50z" />
<glyph unicode="|" horiz-adv-x="475" d="M139 -399v1880h195v-1880h-195z" />
<glyph unicode="}" horiz-adv-x="589" d="M23 -43h83q29 0 46.5 13.5t26.5 35t12.5 48t3.5 50.5v254q0 55 14 97.5t36.5 74t50.5 51t54 29.5v4q-25 10 -51.5 30t-50 51.5t-38.5 74.5t-15 100v248q0 25 -3.5 50.5t-12.5 47t-26.5 36t-46.5 14.5h-83v155h167q100 0 159 -64.5t59 -168.5v-273q0 -43 9 -82.5 t29.5 -70.5t49 -50.5t69.5 -21.5v-158q-49 2 -79.5 -21.5t-48 -60t-23.5 -82.5t-6 -89v-207v-37t-5 -35q-10 -92 -68.5 -146.5t-141.5 -54.5h-170v158z" />
<glyph unicode="~" d="M70 512q59 109 129.5 162t165.5 53q47 0 94 -19.5t91 -43t85 -42t78 -18.5q47 0 82.5 31t78.5 88l138 -92q-59 -113 -127 -166t-158 -53q-45 0 -91 18.5t-92 42t-90 41.5t-81 18q-49 0 -85 -24.5t-83 -83.5q-35 23 -68 44t-67 44z" />
<glyph unicode="&#xa1;" horiz-adv-x="548" d="M156 776v234h243v-234h-243zM164 -416l16 1047h199l14 -1047h-229z" />
<glyph unicode="&#xa2;" d="M125 506q0 125 32.5 216t88 154.5t128 98.5t152.5 45v211h92v-207q188 -8 326 -143l-149 -162q-84 84 -177 94v-612q47 4 92.5 29.5t86.5 66.5l151 -160q-70 -66 -151.5 -104.5t-178.5 -42.5v-230h-92v232q-82 8 -154.5 43t-128 97.5t-87 154.5t-31.5 219zM362 506 q0 -256 164 -297v594q-80 -23 -122 -95.5t-42 -201.5z" />
<glyph unicode="&#xa3;" d="M76 573v179h137q-23 78 -52.5 149.5t-29.5 142.5q0 74 25.5 143.5t78 125t132 88.5t188.5 33q70 0 129 -7.5t112.5 -31t102.5 -66.5t102 -117l-196 -135q-59 88 -118.5 115t-125.5 27q-29 0 -57.5 -11.5t-53 -33t-40 -55.5t-15.5 -79q0 -35 9.5 -68.5t22.5 -68.5 t27.5 -71.5t22.5 -79.5h307v-179h-299q-4 -94 -26.5 -187t-75.5 -179h604v-207h-907v176q68 90 109.5 185.5t50.5 211.5h-164z" />
<glyph unicode="&#xa5;" d="M6 1425h264l166 -381q29 -63 53.5 -126.5t51.5 -126.5h8l119 299l147 335h252q-82 -172 -164 -341t-166 -341h226v-139h-297l-11 -35v-106h308v-139h-308v-324h-233v324h-303v139h303v106q-2 12 -4 17.5t-6 17.5h-293v139h221q-86 172 -168 341t-166 341z" />
<glyph unicode="&#xa7;" horiz-adv-x="999" d="M80 0l129 150q61 -61 136 -92t147 -31q86 0 144 33.5t58 111.5q0 55 -52 92t-173 74q-84 25 -150.5 53.5t-112.5 68.5t-71.5 93t-25.5 131q0 66 36.5 124t85.5 93q-45 41 -71.5 90t-26.5 113q0 74 30 135t82 104t122.5 67t152.5 24q113 0 207 -27t180 -94l-116 -160 q-76 53 -146 70.5t-135 17.5q-68 0 -117 -36t-49 -89q0 -41 28.5 -67.5t71.5 -46t93.5 -34t93.5 -28.5q55 -18 109.5 -44t96.5 -64.5t67.5 -95t25.5 -138.5q0 -66 -32 -128t-77 -95q39 -37 64.5 -87t25.5 -106q0 -80 -31.5 -144.5t-88 -109.5t-134 -68.5t-168.5 -23.5 q-119 0 -226 44t-183 120zM315 696q0 -41 29 -67.5t80 -48.5q59 -27 128 -46.5t128 -46.5q47 35 47 103q0 63 -56.5 98t-181.5 74q-29 8 -52 16.5t-58 22.5q-63 -37 -64 -105z" />
<glyph unicode="&#xa8;" horiz-adv-x="1032" d="M188 1194v223h244v-223h-244zM598 1194v223h242v-223h-242z" />
<glyph unicode="&#xa9;" horiz-adv-x="1662" d="M115 700q0 156 55 290t152.5 230.5t228.5 151.5t285 55t284.5 -54t228 -151.5t152.5 -230.5t55 -291t-55 -289.5t-152.5 -229t-228 -152t-284.5 -54.5q-156 0 -288 53.5t-228.5 149.5t-150.5 229.5t-54 292.5zM270 700q0 -125 43 -231.5t119 -184t179.5 -121.5t224.5 -44 t224 44t178 121.5t118 184t43 231.5q0 127 -43 234.5t-118 185.5t-178 121t-224 43t-224.5 -45t-179.5 -123t-119 -184.5t-43 -231.5zM506 573v224q0 68 20.5 129t62.5 109t104.5 76t146.5 28q119 0 199.5 -58.5t115.5 -156.5l-156 -62q-16 51 -57 85t-102 34 q-86 0 -127 -54.5t-41 -121.5v-236q0 -35 10 -66.5t30.5 -58t52.5 -42t75 -15.5q61 0 102 35t57 90l158 -66q-35 -102 -117 -158.5t-200 -56.5q-84 0 -146.5 27t-104.5 73t-62.5 108.5t-20.5 133.5z" />
<glyph unicode="&#xab;" d="M92 467l281 410h223l-274 -410l274 -410h-223zM502 467l280 410h224l-273 -410l273 -410h-224z" />
<glyph unicode="&#xad;" horiz-adv-x="851" d="M100 432v211h652v-211h-652z" />
<glyph unicode="&#xae;" horiz-adv-x="1112" d="M117 999q0 94 34.5 174t94 138.5t140.5 91.5t171 33q94 0 174 -33t139.5 -91.5t93 -138t33.5 -174.5q0 -92 -34.5 -171.5t-95 -137t-140.5 -90.5t-170 -33q-94 0 -174 33t-139.5 90.5t-93 137t-33.5 171.5zM215 999q0 -74 25.5 -136t71.5 -108t108.5 -73t136.5 -27 t135.5 27t107.5 73t71.5 108.5t25.5 135.5q0 74 -25.5 137.5t-71.5 109.5t-107.5 73t-135.5 27t-136.5 -27t-108.5 -73t-71.5 -109.5t-25.5 -137.5zM391 752v497h203q63 0 108.5 -39t45.5 -106q0 -92 -91 -137l107 -215h-109l-96 198h-72v-198h-96zM487 1040h97 q31 0 50 17.5t19 46.5q0 57 -65 57h-101v-121z" />
<glyph unicode="&#xb0;" horiz-adv-x="837" d="M113 1143q0 61 23.5 114.5t65.5 93.5t97 62.5t119 22.5q63 0 118.5 -22.5t97.5 -62.5t65.5 -93.5t23.5 -114.5t-23.5 -115.5t-65.5 -94.5t-97.5 -62.5t-118.5 -22.5t-118.5 22.5t-97.5 62.5t-65.5 94t-23.5 116zM270 1143q0 -59 44 -102.5t104 -43.5q63 0 106 43.5 t43 102.5t-43 101t-106 42q-59 0 -103.5 -42t-44.5 -101z" />
<glyph unicode="&#xb4;" horiz-adv-x="1032" d="M385 1165l162 389l219 -69l-242 -371z" />
<glyph unicode="&#xb6;" horiz-adv-x="1153" d="M72 1034q0 74 23.5 147.5t69.5 131t115.5 93.5t163.5 36h128t180.5 1t182.5 1h130v-156h-88v-1452h-178v1452h-158v-1452h-182v813h-66q-78 0 -138 33t-101 87t-61.5 123t-20.5 142z" />
<glyph unicode="&#xb7;" horiz-adv-x="555" d="M137 420v282h279v-282h-279z" />
<glyph unicode="&#xb8;" horiz-adv-x="915" d="M268 -387l43 106q47 -23 82 -27.5t66 -4.5q35 0 62.5 14t27.5 53q0 35 -25.5 50.5t-62.5 15.5q-14 0 -35 -4l-61 41l73 233q31 0 60.5 -1t60.5 -1q-14 -41 -27.5 -82t-25.5 -82q55 -4 94 -22.5t62.5 -44t34 -55t10.5 -56.5q0 -31 -14.5 -63.5t-43 -59t-73 -43 t-103.5 -16.5q-53 0 -105.5 11t-99.5 38z" />
<glyph unicode="&#xbb;" d="M94 57l271 410l-271 410h223l279 -410l-279 -410h-223zM504 57l272 410l-272 410h223l279 -410l-279 -410h-223z" />
<glyph unicode="&#xbf;" horiz-adv-x="966" d="M55 -35q0 57 16.5 105.5t42 88.5t58.5 75.5t66 70.5q51 53 90 110.5t39 131.5v74h239v-80q0 -109 -52 -195t-126 -172q-41 -45 -78 -97t-37 -106q0 -29 10.5 -59.5t34 -55t58.5 -41t84 -16.5t86 19.5t62.5 51.5t38.5 71t18 77q59 -10 118.5 -16t118.5 -16 q-16 -102 -60 -179t-106.5 -129.5t-138.5 -78t-158 -25.5q-98 0 -177 29.5t-133 82t-84 124t-30 155.5zM367 776v232h241v-232h-241z" />
<glyph unicode="&#x2c6;" horiz-adv-x="1032" d="M137 1188l305 315h160l299 -313l-98 -90l-285 215q-18 -12 -58 -43t-84 -64.5t-85 -64.5t-60 -43z" />
<glyph unicode="&#x2da;" horiz-adv-x="1032" d="M336 1317q0 45 18.5 86t49 70.5t72.5 47t89 17.5t88 -17.5t72 -47t49.5 -70.5t18.5 -86t-18.5 -85t-49.5 -69.5t-72 -47t-88 -17.5t-89 17.5t-72.5 47t-49 69.5t-18.5 85zM467 1317q0 -39 28.5 -66.5t69.5 -27.5t69 27.5t28 66.5q0 41 -28 67.5t-69 26.5t-69.5 -26.5 t-28.5 -67.5z" />
<glyph unicode="&#x2dc;" horiz-adv-x="1032" d="M139 1237q47 98 108.5 152.5t139.5 54.5q39 0 77 -15.5t72.5 -34t66.5 -33.5t56 -15q35 0 66 22.5t66 73.5l122 -72q-49 -106 -106 -154.5t-127 -48.5q-39 0 -77 14.5t-73.5 33t-69.5 33t-63 14.5q-35 0 -67.5 -19.5t-73.5 -73.5z" />
<glyph unicode="&#x401;" horiz-adv-x="1155" d="M150 0v1425h954v-225h-707v-373h602v-217h-602v-385h707v-225h-954zM301 1550v228h248v-228h-248zM707 1550v228h245v-228h-245z" />
<glyph unicode="&#x402;" horiz-adv-x="1521" d="M8 1210v215h1157v-215h-518v-362h6q31 27 69 49.5t81 36.5t88 22.5t86 8.5q90 0 172 -29t144.5 -88.5t99.5 -150.5t37 -216q0 -113 -30 -209t-92.5 -166.5t-160.5 -111.5t-236 -41h-30.5t-30.5 2v199q150 -2 239 74.5t89 242.5q0 129 -71 201.5t-185 72.5 q-68 0 -139.5 -29.5t-135.5 -94.5v-621h-248v1210h-391z" />
<glyph unicode="&#x403;" horiz-adv-x="1116" d="M150 0v1425h954v-225h-707v-1200h-247zM418 1620l338 256l151 -172l-393 -199z" />
<glyph unicode="&#x404;" horiz-adv-x="1171" d="M98 530v365q0 106 33 204.5t98.5 173.5t166 119t233.5 44q188 0 316 -91.5t181 -240.5l-233 -92q-27 84 -93.5 136t-170.5 52q-72 0 -124 -24.5t-87 -66.5t-52.5 -95t-17.5 -109v-78h440v-217h-440v-84q0 -59 17.5 -113.5t52.5 -97.5t87 -68.5t124 -25.5 q102 0 169.5 54.5t94.5 142.5l235 -99q-53 -156 -183 -243.5t-316 -87.5q-133 0 -233.5 42t-166 114.5t-98.5 172t-33 213.5z" />
<glyph unicode="&#x405;" horiz-adv-x="1165" d="M10 184l150 193q92 -86 200.5 -122t227.5 -36t191.5 49t72.5 146q0 86 -64.5 130t-195.5 64q-92 12 -181 34t-159 66t-112 117.5t-42 192.5q0 106 41 185t108.5 131t154.5 78t180 26q137 0 256.5 -31t222.5 -102l-123 -205q-90 59 -182 82.5t-170 23.5q-131 0 -186.5 -52 t-55.5 -128q0 -45 19.5 -74.5t62.5 -51t108.5 -37t157.5 -32.5q78 -14 154 -37.5t135 -69.5t95 -119t36 -183q0 -104 -43 -185t-116.5 -136.5t-171 -84t-206.5 -28.5q-141 0 -289.5 42t-275.5 154z" />
<glyph unicode="&#x406;" horiz-adv-x="548" d="M152 0v1425h249v-1425h-249z" />
<glyph unicode="&#x407;" horiz-adv-x="548" d="M-63 1561v223h243v-223h-243zM152 0v1425h249v-1425h-249zM346 1561v223h242v-223h-242z" />
<glyph unicode="&#x408;" horiz-adv-x="1001" d="M10 166l176 162q45 -47 100.5 -79t106.5 -32q43 0 83 9.5t73 37t52.5 76.5t19.5 127v958h247v-966q0 -133 -38.5 -223.5t-103 -144.5t-149.5 -77.5t-178 -23.5q-117 0 -215 45t-174 131z" />
<glyph unicode="&#x409;" horiz-adv-x="1943" d="M23 178q76 20 127 54t82.5 92.5t45 147.5t13.5 220v733h813v-581h332q115 0 201.5 -35t146 -91t89.5 -130t30 -152q0 -106 -37 -187t-102.5 -136.5t-154.5 -84t-192 -28.5h-561v1204h-330v-508q0 -166 -23.5 -296t-77.5 -221t-141 -143t-216 -63zM1104 225h313 q111 0 171.5 56.5t60.5 146.5q0 37 -13.5 72t-41 62.5t-70.5 44t-103 16.5h-317v-398z" />
<glyph unicode="&#x40a;" horiz-adv-x="1927" d="M141 0v1425h248v-581h455v581h248v-581h319q115 0 204 -33t150.5 -88t93 -130t31.5 -159q0 -109 -36.5 -189.5t-101 -135t-154 -82t-191.5 -27.5h-563v618h-455v-618h-248zM1092 225h311q111 0 172 53.5t61 147.5q0 74 -57 133t-176 59h-311v-393z" />
<glyph unicode="&#x40b;" horiz-adv-x="1533" d="M10 1210v215h1157v-215h-520v-360h6q70 55 161 87t183 32q186 0 300 -97.5t114 -281.5v-590h-248v512q0 53 -10 97t-36.5 75t-72 48.5t-114.5 17.5q-66 0 -141.5 -32t-141.5 -91v-627h-248v1210h-389z" />
<glyph unicode="&#x40c;" horiz-adv-x="1259" d="M145 0v1425h248v-596h187q33 0 69.5 6.5t72.5 28t65.5 63.5t52.5 111l123 383h241l-129 -415q-31 -104 -83 -175t-120 -94q90 -29 139.5 -102.5t80.5 -177.5l137 -457h-258l-117 395q-23 70 -51.5 114t-62 67.5t-71.5 31.5t-79 8h-197v-616h-248zM424 1620l338 256 l151 -172l-393 -199z" />
<glyph unicode="&#x40e;" horiz-adv-x="1165" d="M39 1425h270l154 -450l131 -369h10l119 365l151 454h263l-414 -1110q-37 -98 -74 -164.5t-80 -106.5t-94 -56.5t-119 -16.5h-133v213h96q49 0 81 20.5t57 74.5l14 36zM293 1735h178q0 -20 9 -44t25.5 -44.5t40 -34t54.5 -13.5q33 0 57.5 13.5t41 34t24.5 44t8 44.5h176 q-4 -43 -20.5 -95.5t-51 -97.5t-92 -75.5t-143.5 -30.5t-143.5 30.5t-93 75.5t-52 97.5t-18.5 95.5z" />
<glyph unicode="&#x40f;" horiz-adv-x="1341" d="M150 0v1425h247v-1200h549v1200h246v-1425h-399v-350h-240v350h-403z" />
<glyph unicode="&#x410;" horiz-adv-x="1288" d="M4 0l539 1425h200l539 -1425h-262l-113 315h-528l-115 -315h-260zM451 526h383l-95 289l-94 293h-6l-92 -287z" />
<glyph unicode="&#x411;" horiz-adv-x="1234" d="M131 0v1425h903v-225h-655v-356h319q117 0 207 -33t150.5 -88t92.5 -130t32 -159q0 -109 -37 -189.5t-102.5 -135t-153.5 -82t-191 -27.5h-565zM379 223h313q111 0 172.5 54.5t61.5 146.5q0 37 -13.5 72.5t-42 62.5t-72.5 43t-106 16h-313v-395z" />
<glyph unicode="&#x412;" horiz-adv-x="1265" d="M150 0v1425h569q109 0 192.5 -28.5t140 -79.5t85 -123t28.5 -158q0 -41 -9 -82t-31.5 -78.5t-60.5 -72.5t-95 -60v-8q55 -16 97 -51t69.5 -80t42 -95t14.5 -99q0 -92 -34 -168t-91 -130.5t-133 -83t-160 -28.5h-624zM397 225h318q57 0 100 16.5t70.5 44t41 63.5t13.5 75 t-13.5 75t-41 63.5t-70.5 45t-100 17.5h-318v-400zM397 834h289q115 0 168 55t53 133t-53 130t-168 52h-289v-370z" />
<glyph unicode="&#x413;" horiz-adv-x="1116" d="M150 0v1425h954v-225h-707v-1200h-247z" />
<glyph unicode="&#x414;" horiz-adv-x="1499" d="M41 199q33 6 65.5 13t67.5 15q49 37 78 82t46 114t25.5 166t14.5 238l24 598h941q0 -303 1 -603t1 -603h137v-536h-219v317h-961v-317h-221v516zM457 219h600v985h-477q-4 -98 -8.5 -191t-8.5 -192q-4 -94 -9 -182t-15.5 -165t-30 -142.5t-51.5 -112.5z" />
<glyph unicode="&#x415;" horiz-adv-x="1155" d="M150 0v1425h954v-225h-707v-373h602v-217h-602v-385h707v-225h-954z" />
<glyph unicode="&#x416;" horiz-adv-x="1951" d="M41 0l137 457q31 104 80 178t139 102q-68 23 -121 93.5t-81 175.5l-129 415h241l123 -383q20 -72 51 -112.5t66 -62t71.5 -28t71.5 -6.5h162v598h248v-598h162q33 0 70.5 6.5t72.5 28t65.5 62.5t51.5 112l123 383h241l-129 -415q-29 -104 -82 -175t-121 -94 q90 -29 139.5 -102.5t80.5 -177.5l137 -457h-258l-117 395q-23 70 -51.5 114t-62 67.5t-71.5 31.5t-79 8h-172v-616h-248v616h-172q-41 0 -79 -8t-71.5 -31.5t-62.5 -67.5t-51 -114l-117 -395h-258z" />
<glyph unicode="&#x417;" horiz-adv-x="1179" d="M33 309l229 103q14 -41 45 -76t71 -61.5t88 -42t99 -15.5q119 0 197 57.5t78 159.5q0 98 -62.5 153.5t-171.5 55.5h-166v211h170q96 0 156.5 50t60.5 130q0 84 -67.5 127t-163.5 43q-104 0 -183 -50t-118 -130l-217 109q61 139 192 222t326 83q223 0 352 -99.5 t129 -277.5q0 -37 -10 -80t-33.5 -84t-63.5 -78t-100 -61q0 -4 1 -5t1 -5q68 -20 111 -59.5t67.5 -85.5t34 -94t9.5 -87q0 -102 -41 -182t-113 -135.5t-169 -85t-208 -29.5q-193 0 -333 84t-197 235z" />
<glyph unicode="&#x418;" horiz-adv-x="1417" d="M150 0v1425h245v-1007q2 -2 6 -2l332 510l332 499h207v-1425h-248v967h-6l-283 -437q-90 -133 -178 -265t-180 -265h-227z" />
<glyph unicode="&#x419;" horiz-adv-x="1417" d="M150 0v1425h245v-1007q2 -2 6 -2l332 510l332 499h207v-1425h-248v967h-6l-283 -437q-90 -133 -178 -265t-180 -265h-227zM389 1763h178q0 -20 9.5 -43.5t25.5 -44t40 -34t54 -13.5q33 0 57.5 13.5t41 34t24.5 44t8 43.5h177q-4 -43 -20.5 -95t-51.5 -97t-92.5 -76 t-143.5 -31t-143 31t-93 76t-52.5 97t-18.5 95z" />
<glyph unicode="&#x41a;" horiz-adv-x="1259" d="M145 0v1425h248v-596h187q33 0 69.5 6.5t72.5 28t65.5 63.5t52.5 111l123 383h241l-129 -415q-31 -104 -83 -175t-120 -94q90 -29 139.5 -102.5t80.5 -177.5l137 -457h-258l-117 395q-23 70 -51.5 114t-62 67.5t-71.5 31.5t-79 8h-197v-616h-248z" />
<glyph unicode="&#x41b;" horiz-adv-x="1368" d="M25 176q76 20 128 55t83.5 93.5t45 147.5t13.5 218v735h909v-1425h-246v1204h-430v-397q0 -207 -19.5 -357.5t-70.5 -253t-140 -156.5t-228 -67q-10 51 -21.5 101.5t-23.5 101.5z" />
<glyph unicode="&#x41c;" horiz-adv-x="1566" d="M150 0v1425h231l186 -407q59 -129 113.5 -256t110.5 -256h8l114 272l105 240l182 407h238v-1425h-248v846h-6l-76 -182l-104 -230l-111 -233h-199l-82 174l-135 299l-74 174l-6 -6v-842h-247z" />
<glyph unicode="&#x41d;" horiz-adv-x="1341" d="M150 0v1425h247v-598h549v598h246v-1425h-246v610h-549v-610h-247z" />
<glyph unicode="&#x41e;" horiz-adv-x="1249" d="M92 530v365q0 106 33 204.5t98.5 173.5t166 119t233.5 44q123 0 221 -41t167.5 -113t106.5 -171t37 -216v-365q0 -125 -38 -225t-107.5 -171t-168 -108.5t-218.5 -37.5q-133 0 -233.5 44t-166 118.5t-98.5 173t-33 206.5zM342 524q0 -59 17.5 -113.5t52 -97.5t87 -68.5 t124.5 -25.5q66 0 118 23.5t87.5 64.5t55 96.5t19.5 120.5v383q0 61 -19.5 114.5t-55 93.5t-87.5 63.5t-118 23.5q-72 0 -124.5 -24.5t-87 -66.5t-52 -95t-17.5 -109v-383z" />
<glyph unicode="&#x41f;" horiz-adv-x="1341" d="M150 0v1425h1042v-1425h-246v1204h-549v-1204h-247z" />
<glyph unicode="&#x420;" horiz-adv-x="1210" d="M150 0v1425h555q100 0 188 -28.5t154.5 -84t104.5 -139t38 -194.5q0 -86 -34 -164t-95.5 -137.5t-147.5 -95t-190 -35.5h-326v-547h-247zM397 772h310q109 0 169 63.5t60 149.5q0 111 -65.5 163t-172.5 52h-301v-428z" />
<glyph unicode="&#x421;" horiz-adv-x="1171" d="M98 530v365q0 106 33 204.5t98.5 173.5t166 119t233.5 44q188 0 316 -91.5t181 -240.5l-233 -92q-27 84 -93.5 136t-170.5 52q-72 0 -124 -24.5t-87 -66.5t-52.5 -95t-17.5 -109v-379q0 -59 17.5 -113.5t52.5 -97.5t87 -68.5t124 -25.5q102 0 169.5 54.5t94.5 142.5 l235 -99q-53 -156 -183 -243.5t-316 -87.5q-133 0 -233.5 42t-166 114.5t-98.5 172t-33 213.5z" />
<glyph unicode="&#x422;" horiz-adv-x="1067" d="M10 1204v221h1041v-221h-398v-1204h-247v1204h-396z" />
<glyph unicode="&#x423;" horiz-adv-x="1165" d="M39 1425h270l154 -450l131 -369h10l119 365l151 454h263l-414 -1110q-37 -98 -74 -164.5t-80 -106.5t-94 -56.5t-119 -16.5h-133v213h96q49 0 81 20.5t57 74.5l14 36z" />
<glyph unicode="&#x424;" horiz-adv-x="1552" d="M86 725q0 125 36 235.5t107.5 193.5t178 133t247.5 56v82h238v-82q152 -10 261.5 -58t179 -130t102 -191.5t32.5 -238.5q0 -125 -37.5 -232.5t-110.5 -188.5t-180.5 -129t-246.5 -52v-123h-238v123q-141 10 -247.5 58t-178 127t-107.5 184.5t-36 232.5zM326 727 q0 -170 79.5 -279.5t249.5 -125.5v823q-88 -8 -150.5 -43t-102.5 -91.5t-58 -129t-18 -154.5zM893 322q94 4 158.5 36.5t103.5 87t56.5 126t17.5 155.5q0 78 -16.5 151.5t-56.5 132t-104.5 94.5t-158.5 40v-823z" />
<glyph unicode="&#x425;" horiz-adv-x="1179" d="M0 0l461 729l-434 696h280l281 -491l282 491h279l-432 -696l461 -729h-279l-311 526l-309 -526h-279z" />
<glyph unicode="&#x426;" horiz-adv-x="1409" d="M150 0v1425h247v-1200h549v1200h246v-1204h170v-538h-219v317h-993z" />
<glyph unicode="&#x427;" horiz-adv-x="1288" d="M113 977v448h241v-419q0 -135 67.5 -200t190.5 -65q57 0 137 19.5t144 66.5v598h244v-1425h-246v621h-2q-78 -47 -166 -65.5t-174 -18.5q-94 0 -174 27.5t-138.5 81.5t-91 137t-32.5 194z" />
<glyph unicode="&#x428;" horiz-adv-x="1900" d="M143 0v1425h248v-1200h434v1200h250v-1200h436v1200h246v-1425h-1614z" />
<glyph unicode="&#x429;" horiz-adv-x="1972" d="M141 0v1425h248v-1200h434v1200h250v-1200h436v1200h248v-1204h168v-538h-219v317h-1565z" />
<glyph unicode="&#x42a;" horiz-adv-x="1517" d="M20 1200v225h674v-581h320q115 0 204 -33t150.5 -88t93 -130t31.5 -159q0 -109 -37 -189.5t-102.5 -135t-153.5 -82t-190 -27.5h-566v1200h-424zM692 225h314q111 0 171 53.5t60 147.5q0 37 -14.5 71.5t-43 61.5t-71.5 43t-102 16h-314v-393z" />
<glyph unicode="&#x42b;" horiz-adv-x="1722" d="M158 0v1425h248v-581h321q115 0 204 -33t149.5 -88t92 -130t31.5 -159q0 -109 -37 -189.5t-101.5 -135t-153.5 -82t-191 -27.5h-563zM406 225h313q111 0 171 53.5t60 147.5q0 74 -57 133t-174 59h-313v-393zM1333 0v1425h248v-1425h-248z" />
<glyph unicode="&#x42c;" horiz-adv-x="1222" d="M150 0v1425h247v-581h320q115 0 204 -33t150.5 -88t93 -130t31.5 -159q0 -109 -37 -189.5t-101.5 -135t-153.5 -82t-191 -27.5h-563zM397 225h314q111 0 171 53.5t60 147.5q0 37 -14.5 71.5t-43 61.5t-71.5 43t-102 16h-314v-393z" />
<glyph unicode="&#x42d;" horiz-adv-x="1210" d="M57 322l234 98q29 -88 94.5 -142.5t169.5 -54.5q76 0 130 25.5t88 68.5t49.5 97.5t15.5 113.5v97h-441v217h441v65q0 55 -12.5 107.5t-43 94.5t-83 67.5t-130.5 25.5q-98 0 -171.5 -52t-100.5 -136l-234 92q27 74 75 135.5t114.5 105.5t147.5 67.5t175 23.5 q141 0 239.5 -44t158 -119t86 -173t26.5 -205v-365q0 -115 -32.5 -214t-99 -171.5t-166 -114.5t-232.5 -42q-186 0 -315 88t-183 244z" />
<glyph unicode="&#x42e;" horiz-adv-x="1667" d="M141 0v1425h248v-598h172v66q0 106 30 204.5t92 174.5t157.5 120t226.5 44t226.5 -40t157.5 -113t92 -171t30 -215v-369q0 -123 -35 -223t-100.5 -171t-159.5 -108.5t-213 -37.5q-135 0 -230.5 44t-157 119.5t-89 173t-27.5 205.5v80h-172v-610h-248zM809 524 q0 -59 12.5 -113.5t42 -97.5t78.5 -68.5t123 -25.5q68 0 117 23.5t79.5 64.5t45 96.5t14.5 120.5v381q0 57 -13.5 110.5t-44 94.5t-78.5 66.5t-118 25.5q-74 0 -123 -26.5t-79.5 -69.5t-43 -96.5t-12.5 -104.5v-381z" />
<glyph unicode="&#x42f;" horiz-adv-x="1294" d="M66 0l112 403q25 90 66 154t125 92q-68 18 -114 55t-75.5 85.5t-42 103.5t-12.5 108q0 94 32.5 173t92 134.5t140.5 86t179 30.5h578v-1425h-250v602h-197q-41 0 -78.5 -10t-72.5 -38t-64.5 -74t-50.5 -115l-106 -365h-262zM379 997q0 -49 18.5 -83.5t51 -56t77.5 -32 t97 -10.5h274v391h-289q-106 0 -167.5 -54.5t-61.5 -154.5z" />
<glyph unicode="&#x430;" horiz-adv-x="1021" d="M72 295q0 61 22.5 116.5t65.5 97.5t107.5 66.5t148.5 24.5h274v74q0 29 -9 55.5t-31.5 46t-61.5 31.5t-99 12q-84 0 -141 -21.5t-100 -62.5l-123 156q74 74 172.5 103.5t204.5 29.5q86 0 161.5 -15.5t133 -54.5t91.5 -103.5t34 -162.5v-688h-232v90l-4 2 q-41 -53 -113.5 -77.5t-150.5 -24.5q-162 0 -256 78.5t-94 226.5zM291 311q0 -23 9 -45t30.5 -39.5t55.5 -29t85 -11.5q39 0 76 7.5t66.5 23.5t50 43t24.5 68q2 12 2 30.5v65.5h-235q-88 0 -126 -33t-38 -80z" />
<glyph unicode="&#x431;" horiz-adv-x="1054" d="M84 596q4 139 12 222t15 114q33 166 126 278.5t269 178.5q59 23 143 50t197 68l69 -176q-98 -41 -156.5 -61.5t-90.5 -32.5q-92 -35 -153.5 -66.5t-100.5 -71.5t-59.5 -92.5t-26.5 -127.5q2 0 4 -2q51 57 120 81.5t128 24.5q109 0 181.5 -37t123.5 -110q45 -66 64.5 -150 t19.5 -184q0 -209 -82 -336q-57 -92 -151.5 -136t-215.5 -44q-127 0 -207 35.5t-127 99.5q-53 68 -77.5 179.5t-24.5 295.5zM322 485q0 -61 9 -110t31 -86q25 -47 65 -69.5t101 -22.5t108.5 29.5t72.5 92.5q14 33 19 73t5 95q0 59 -8 107.5t-23 75.5q-23 51 -62.5 78.5 t-109.5 27.5q-59 0 -99 -23.5t-64 -64.5q-25 -41 -35 -96t-10 -107z" />
<glyph unicode="&#x432;" horiz-adv-x="1024" d="M115 0v1014h477q180 0 269 -81t89 -204q0 -55 -29.5 -112.5t-107.5 -92.5q82 -27 121 -90.5t39 -126.5q0 -68 -26.5 -124t-73 -97t-110 -63.5t-136.5 -22.5h-512zM348 205h240q82 0 115.5 33.5t33.5 78.5t-33.5 80t-115.5 35h-240v-227zM348 600h219q86 0 117 33t31 76 q0 47 -35 76.5t-113 29.5h-219v-215z" />
<glyph unicode="&#x433;" horiz-adv-x="897" d="M115 0v1014h778v-199h-547v-815h-231z" />
<glyph unicode="&#x434;" horiz-adv-x="1206" d="M35 184l117 23q35 27 56 55.5t35.5 70.5t21.5 99t14 141l28 441h742v-811h116v-486h-209v283h-710v-283h-211v467zM412 201h407v616h-317l-15 -231q-8 -127 -21 -225.5t-54 -159.5z" />
<glyph unicode="&#x435;" horiz-adv-x="1038" d="M76 504q0 147 40 246.5t103.5 161t142 88t156.5 26.5q102 0 183 -35t137.5 -97.5t86 -152.5t29.5 -200v-101h-639q0 -47 12.5 -91t39 -77.5t67.5 -54t96 -20.5q45 0 114 21.5t126 74.5q37 -41 67.5 -81t67.5 -81q-86 -78 -186.5 -110.5t-196.5 -32.5q-80 0 -159.5 22.5 t-143 81t-103.5 157.5t-40 255zM319 604h390q-6 104 -60.5 157.5t-132.5 53.5q-80 0 -133 -55t-64 -156z" />
<glyph unicode="&#x436;" horiz-adv-x="1562" d="M41 0q25 82 50.5 163t49.5 165q23 76 57.5 130t106.5 70q-57 16 -94 66.5t-59 124.5l-93 295h228l82 -266q14 -49 35.5 -79t47 -45.5t53 -19.5t54.5 -4h109v414h231v-414h105q59 0 112 37t86 139l74 238h227l-92 -295q-23 -74 -59.5 -124t-94.5 -67q72 -16 107 -70.5 t57 -129.5q25 -84 50.5 -165t50.5 -163h-236q-18 66 -37.5 130.5t-38.5 129.5q-33 98 -80 128t-110 30h-121v-418h-231v418h-152q-55 0 -95 -36t-69 -122q-18 -66 -37.5 -130t-38.5 -130h-235z" />
<glyph unicode="&#x437;" horiz-adv-x="935" d="M31 127l135 156q18 -18 47 -35t64.5 -29t75.5 -19t77 -7q92 0 143.5 36.5t51.5 92.5q0 61 -52.5 87.5t-115.5 26.5h-152v170h162q68 0 104.5 32t36.5 77q0 51 -44 77.5t-120 26.5q-31 0 -64.5 -5t-67 -14t-64.5 -24.5t-53 -36.5l-117 160q72 66 173 97.5t202 31.5 q197 0 291 -78t94 -207q0 -25 -8.5 -54.5t-26 -59t-46 -56t-67.5 -45.5v-4q49 -18 82 -43.5t51.5 -56.5t25.5 -61.5t7 -57.5q0 -72 -29.5 -129t-83 -99t-129 -64.5t-170.5 -22.5q-135 0 -235 30.5t-178 106.5z" />
<glyph unicode="&#x438;" horiz-adv-x="1126" d="M117 0v1014h227v-674h4q45 66 90 128t90 128q74 104 147 208.5t148 209.5h189v-1014h-230v641h-4q-51 -80 -106.5 -152.5t-108.5 -150.5l-239 -338h-207z" />
<glyph unicode="&#x439;" horiz-adv-x="1126" d="M117 0v1014h227v-674h4q45 66 90 128t90 128q74 104 147 208.5t148 209.5h189v-1014h-230v641h-4q-51 -80 -106.5 -152.5t-108.5 -150.5l-239 -338h-207zM279 1454h178q0 -20 9 -44t25.5 -44t40 -33.5t54.5 -13.5q33 0 57.5 13.5t40.5 33.5t24.5 44t8.5 44h176 q-4 -43 -20.5 -95t-51.5 -97t-92 -76t-143 -31t-143.5 31t-93.5 76t-52 97t-18 95z" />
<glyph unicode="&#x43a;" horiz-adv-x="1036" d="M111 0v1012h231v-412h131q27 0 53.5 4t52 19.5t47 45t36.5 79.5l81 266h230l-92 -295q-23 -74 -60 -124t-94 -67q72 -16 106.5 -70.5t57.5 -129.5l100 -328h-237l-74 260q-33 98 -81 127t-112 29h-145v-416h-231z" />
<glyph unicode="&#x43b;" horiz-adv-x="1101" d="M27 152q63 18 104 41.5t65.5 67.5t34 114.5t9.5 179.5v459h735v-1014h-232v813h-294v-260q0 -279 -85 -419t-296 -154q-10 43 -20.5 86t-20.5 86z" />
<glyph unicode="&#x43c;" horiz-adv-x="1275" d="M113 0v1014h209q70 -129 109.5 -206t62 -119t32 -60.5t15.5 -30.5l98 -186q25 47 47.5 93t46.5 93q51 106 106.5 208.5t108.5 207.5h213v-1014h-227v553h-2q-35 -72 -70 -139.5t-69 -137.5l-72 -137h-166l-90 172q-33 59 -63.5 121t-59.5 123h-2v-555h-227z" />
<glyph unicode="&#x43d;" horiz-adv-x="1089" d="M115 0v1014h229v-412h404v412h227v-1014h-227v420h-404v-420h-229z" />
<glyph unicode="&#x43e;" horiz-adv-x="1054" d="M86 506q0 82 11.5 155.5t39.5 131.5q53 113 159 173t245 60q115 0 206 -44t146 -126q39 -59 57.5 -144t16.5 -190q0 -117 -17.5 -199.5t-52.5 -144.5q-59 -96 -159.5 -144t-221.5 -48q-115 0 -205 38.5t-145 120.5q-84 125 -80 361zM319 504q0 -59 6.5 -108.5t24.5 -86.5 q23 -53 68 -82.5t104 -29.5q66 0 117 35.5t74 109.5q10 29 14 72t4 108q0 119 -26 178q-23 59 -69.5 88t-103.5 29q-59 0 -106 -30.5t-72 -84.5q-18 -41 -25 -90t-10 -108z" />
<glyph unicode="&#x43f;" horiz-adv-x="1097" d="M123 0v1014h846v-1014h-232v815h-383v-815h-231z" />
<glyph unicode="&#x440;" horiz-adv-x="1056" d="M123 -410v1424h229v-90l6 -2q51 57 117 79.5t131 22.5q119 0 191.5 -48t111.5 -124t51.5 -168t12.5 -180t-15.5 -179.5t-58.5 -166t-118.5 -122.5t-198.5 -48q-63 0 -125 23.5t-101 72.5h-4v-494h-229zM352 504q0 -47 5 -100.5t24.5 -97.5t57.5 -72.5t102 -28.5 q63 0 102 27.5t58.5 70.5t25.5 96.5t6 104.5q0 49 -4 102t-22.5 98.5t-56.5 74t-105 28.5q-66 0 -104 -29.5t-57 -75t-25.5 -98.5t-6.5 -100z" />
<glyph unicode="&#x441;" horiz-adv-x="915" d="M57 506q0 137 40 235.5t105.5 162t151.5 92t176 28.5q203 0 347 -143l-150 -162q-90 94 -192 94q-117 0 -178.5 -73.5t-61.5 -233.5q0 -158 60.5 -231.5t176.5 -73.5q51 0 102.5 26.5t94.5 69.5l152 -160q-74 -72 -164 -110.5t-195 -38.5q-92 0 -176 29.5t-148.5 92 t-102.5 161t-38 235.5z" />
<glyph unicode="&#x442;" horiz-adv-x="882" d="M14 815v199h848v-199h-309v-815h-231v815h-308z" />
<glyph unicode="&#x443;" horiz-adv-x="962" d="M0 1014h250l131 -373l100 -319h8l101 315l129 377h244l-447 -1219q-43 -117 -123 -161t-172 -44h-86v195h64q45 0 75.5 31.5t47.5 74.5l51 160z" />
<glyph unicode="&#x444;" horiz-adv-x="1329" d="M88 506q2 82 14.5 154.5t38.5 130.5q25 51 68 95t96 74.5t115.5 48t126.5 17.5v463h229v-463q57 0 113.5 -12.5t107 -36t91 -56t67.5 -71.5q84 -127 84 -348q0 -201 -76 -320q-59 -96 -165.5 -145t-221.5 -53v-385h-227v385q-117 2 -217.5 44t-157.5 119 q-47 66 -66.5 156t-19.5 203zM322 504q0 -59 7 -108.5t25 -86.5q25 -53 79 -86t114 -33v625q-59 0 -113.5 -29.5t-79.5 -83.5q-18 -41 -24 -90t-8 -108zM776 190q68 0 127.5 41t81.5 113q10 33 14.5 71t4.5 91q0 125 -29 192q-23 57 -78 86t-121 31v-625z" />
<glyph unicode="&#x445;" horiz-adv-x="1026" d="M23 0l368 518l-352 496h276l197 -328l199 328h276l-352 -498l369 -516h-279l-213 342l-211 -342h-278z" />
<glyph unicode="&#x446;" horiz-adv-x="1169" d="M123 0v1014h229v-807h400v807h227v-807h149v-490h-208v283h-797z" />
<glyph unicode="&#x447;" horiz-adv-x="1017" d="M76 686v330h231v-291q0 -92 39 -132t129 -40q39 0 101.5 14.5t111.5 42.5v406h225v-1016h-225v418h-2q-66 -35 -131.5 -49.5t-124.5 -14.5q-74 0 -138.5 17.5t-112.5 57.5t-75.5 103.5t-27.5 153.5z" />
<glyph unicode="&#x448;" horiz-adv-x="1615" d="M123 0v1014h225v-805h346v805h226v-805h348v805h225v-1014h-1370z" />
<glyph unicode="&#x449;" horiz-adv-x="1683" d="M123 0v1014h225v-805h346v805h228v-805h346v805h225v-807h149v-490h-210v283h-1309z" />
<glyph unicode="&#x44a;" horiz-adv-x="1220" d="M25 815v199h557v-352h245q98 0 168 -28t114 -72t64.5 -101.5t20.5 -118.5q0 -72 -22.5 -133.5t-68.5 -108.5t-114.5 -73.5t-163.5 -26.5h-473v815h-327zM580 207h229q76 0 112.5 35t36.5 90q0 45 -32.5 85t-116.5 40l-229 2v-252z" />
<glyph unicode="&#x44b;" horiz-adv-x="1398" d="M111 0v1014h227v-352h246q98 0 167.5 -28t113.5 -72t64.5 -101.5t20.5 -118.5q0 -72 -22.5 -133.5t-68.5 -108.5t-114.5 -73.5t-162.5 -26.5h-471zM336 207h229q76 0 113 35t37 90q0 45 -33 85t-117 40l-229 2v-252zM1055 0v1014h227v-1014h-227z" />
<glyph unicode="&#x44c;" horiz-adv-x="983" d="M109 0v1014h229v-352h244q98 0 167.5 -28t114.5 -72t65.5 -101.5t20.5 -118.5q0 -72 -22.5 -133.5t-68.5 -108.5t-115.5 -73.5t-161.5 -26.5h-473zM336 207h227q76 0 114 35t38 90q0 45 -34 85t-118 40l-227 2v-252z" />
<glyph unicode="&#x44d;" horiz-adv-x="950" d="M39 119l129 170q47 -41 99 -64.5t106 -23.5q111 0 176 57t76 172h-320v168h322q-6 102 -63.5 157.5t-162.5 55.5q-47 0 -105 -21.5t-103 -64.5l-130 164q70 68 161 101.5t194 33.5q94 0 177 -26.5t143.5 -87t95 -154.5t34.5 -230q0 -141 -40 -243.5t-107.5 -167 t-154.5 -95t-181 -30.5q-205 0 -346 129z" />
<glyph unicode="&#x44e;" horiz-adv-x="1402" d="M113 0v1014h231v-414h125q4 53 15.5 102.5t29.5 90.5q51 113 151.5 174t231.5 61q111 0 200 -42t142 -126q41 -66 58.5 -157t17.5 -201q0 -201 -70 -322q-57 -100 -154.5 -147t-207.5 -47q-111 0 -197 41t-139 120q-33 47 -53.5 118t-24.5 157h-125v-422h-231zM696 504 q0 -59 7.5 -110.5t21.5 -84.5q25 -53 64.5 -81.5t99.5 -28.5q63 0 109 34.5t69 108.5q16 61 16 166q0 63 -6 113.5t-20 83.5q-23 59 -67 86.5t-97 27.5q-57 0 -99 -30.5t-67 -86.5q-14 -31 -22.5 -85t-8.5 -113z" />
<glyph unicode="&#x44f;" horiz-adv-x="1050" d="M57 0l74 262q16 59 46 107.5t87 68.5q-92 29 -132 97.5t-42 148.5q0 74 24.5 134.5t69.5 104.5t108.5 67.5t141.5 23.5h498v-1014h-232v393h-163q-59 -2 -105.5 -30.5t-69.5 -114.5l-63 -248h-242zM319 684q0 -61 41 -88t109 -27h231v248h-237q-57 0 -100.5 -32.5 t-43.5 -100.5z" />
<glyph unicode="&#x451;" horiz-adv-x="1038" d="M76 504q0 147 40 246.5t103.5 161t142 88t156.5 26.5q102 0 183 -35t137.5 -97.5t86 -152.5t29.5 -200v-101h-639q0 -47 12.5 -91t39 -77.5t67.5 -54t96 -20.5q45 0 114 21.5t126 74.5q37 -41 67.5 -81t67.5 -81q-86 -78 -186.5 -110.5t-196.5 -32.5q-80 0 -159.5 22.5 t-143 81t-103.5 157.5t-40 255zM193 1208v224h243v-224h-243zM319 604h390q-6 104 -60.5 157.5t-132.5 53.5q-80 0 -133 -55t-64 -156zM602 1208v224h242v-224h-242z" />
<glyph unicode="&#x452;" horiz-adv-x="1187" d="M18 1157v162h142v168h229v-168h426v-162h-424v-252l8 -2q57 55 125 83t140 28q199 0 310 -123t111 -387q0 -109 -26.5 -206t-83.5 -169t-148.5 -114t-218.5 -42q-16 0 -28.5 1t-28.5 3v203q10 -2 22.5 -2h22.5q70 0 119 23.5t78.5 66.5t43 101.5t13.5 128.5 q0 61 -11.5 116.5t-39 98.5t-74.5 67.5t-119 24.5q-37 0 -75.5 -14.5t-69.5 -47t-50.5 -83t-19.5 -121.5q0 -135 -1 -269.5t-1 -269.5h-229v1157h-142z" />
<glyph unicode="&#x453;" horiz-adv-x="897" d="M115 0v1014h778v-199h-547v-815h-231zM362 1165l162 389l219 -69l-241 -371z" />
<glyph unicode="&#x454;" horiz-adv-x="915" d="M51 496q0 139 41 239.5t107.5 165t152.5 94t178 29.5q104 0 185.5 -33t154.5 -100l-131 -164q-43 43 -97 64.5t-103 21.5q-104 0 -166 -56.5t-76 -162.5h321v-168h-323q10 -113 74.5 -169t169.5 -56q53 0 105 23.5t99 64.5l131 -170q-74 -66 -156.5 -97.5t-187.5 -31.5 q-90 0 -176 27.5t-153.5 89t-108.5 157.5t-41 232z" />
<glyph unicode="&#x455;" horiz-adv-x="948" d="M33 141l125 166q72 -66 152.5 -93.5t172.5 -27.5q74 0 125 31t51 86q0 53 -43 79t-137 36q-68 8 -136.5 20.5t-123.5 43t-90 83.5t-35 142q0 78 31 137t82 99t119.5 60.5t146.5 20.5q117 0 211 -25.5t178 -89.5l-110 -176q-72 47 -142.5 67.5t-132.5 20.5 q-82 0 -123 -31.5t-41 -76.5q0 -51 57.5 -74t184.5 -37q61 -6 121.5 -23.5t106.5 -50t75 -86t29 -133.5q0 -76 -33 -135t-89 -101t-131 -63.5t-161 -21.5q-113 0 -224.5 30.5t-215.5 122.5z" />
<glyph unicode="&#x456;" horiz-adv-x="505" d="M137 0v1014h232v-1014h-232zM137 1212v213h232v-213h-232z" />
<glyph unicode="&#x457;" horiz-adv-x="481" d="M-96 1194v223h243v-223h-243zM123 0v1014h235v-1014h-235zM313 1194v223h242v-223h-242z" />
<glyph unicode="&#x458;" horiz-adv-x="542" d="M-16 -207h57q66 0 90.5 34t24.5 87v1102h233v-1137q0 -131 -74.5 -211t-224.5 -80h-106v205zM156 1212v213h233v-213h-233z" />
<glyph unicode="&#x459;" horiz-adv-x="1550" d="M33 154q63 18 104 43.5t65.5 69.5t34 114t9.5 174v459h659v-352h244q98 0 167.5 -28t114 -72t65 -101.5t20.5 -118.5q0 -72 -23 -133.5t-69 -108.5t-114.5 -73.5t-162.5 -26.5h-471v813h-219v-258q0 -139 -20.5 -243.5t-65.5 -175t-119 -109.5t-178 -47zM903 207h230 q76 0 112.5 35t36.5 90q0 45 -32.5 86t-116.5 41h-230v-252z" />
<glyph unicode="&#x45a;" horiz-adv-x="1544" d="M106 0v1014h232v-365h324v365h231v-363h244q98 0 167.5 -26.5t113.5 -70.5t64.5 -100.5t20.5 -117.5q0 -70 -22.5 -131.5t-68.5 -106.5t-114.5 -71.5t-162.5 -26.5h-473v446h-324v-446h-232zM891 203h231q76 0 112 34t36 89q0 45 -32 82.5t-116 37.5l-231 3v-246z" />
<glyph unicode="&#x45b;" horiz-adv-x="1128" d="M29 1149v164h139v174h231v-174h408v-164h-408v-254l7 -2q47 51 121.5 81t150.5 30q72 0 133 -23t105.5 -68t70 -112.5t25.5 -155.5v-645h-232v582q0 98 -44 150t-138 52q-86 0 -142.5 -57t-56.5 -156v-571h-231v1149h-139z" />
<glyph unicode="&#x45c;" horiz-adv-x="1036" d="M111 0v1012h231v-412h131q27 0 53.5 4t52 19.5t47 45t36.5 79.5l81 266h230l-92 -295q-23 -74 -60 -124t-94 -67q72 -16 106.5 -70.5t57.5 -129.5l100 -328h-237l-74 260q-33 98 -81 127t-112 29h-145v-416h-231zM383 1165l162 389l219 -69l-242 -371z" />
<glyph unicode="&#x45e;" horiz-adv-x="962" d="M0 1014h250l131 -373l100 -319h8l101 315l129 377h244l-447 -1219q-43 -117 -123 -161t-172 -44h-86v195h64q45 0 75.5 31.5t47.5 74.5l51 160zM184 1454h178q0 -20 9.5 -44t26 -44t40 -33.5t54.5 -13.5q33 0 57 13.5t40.5 33.5t25 44t8.5 44h176q-4 -43 -20.5 -95 t-51.5 -97t-92 -76t-143 -31t-143.5 31t-93.5 76t-52.5 97t-18.5 95z" />
<glyph unicode="&#x45f;" horiz-adv-x="1077" d="M115 0v1014h223v-805h403v805h222v-1014h-314v-305h-221v305h-313z" />
<glyph unicode="&#x490;" horiz-adv-x="1116" d="M150 0v1425h741v250h213v-475h-707v-1200h-247z" />
<glyph unicode="&#x491;" horiz-adv-x="897" d="M115 0v1014h581v211h197v-410h-549v-815h-229z" />
<glyph unicode="&#x4d9;" horiz-adv-x="1038" d="M76 471v102h641q4 109 -54.5 175.5t-162.5 66.5q-43 0 -107.5 -21.5t-122.5 -72.5l-143 160q86 80 185.5 112.5t195.5 32.5q80 0 161 -22.5t144.5 -81t103 -157.5t39.5 -255q0 -147 -39.5 -247.5t-103 -161t-142.5 -87t-159 -26.5q-102 0 -183 34.5t-137.5 97t-86 151.5 t-29.5 200zM322 408q8 -104 61 -157.5t133 -53.5q78 0 131 55t64 156h-389z" />
<glyph unicode="&#x2000;" horiz-adv-x="938" />
<glyph unicode="&#x2001;" horiz-adv-x="1876" />
<glyph unicode="&#x2002;" horiz-adv-x="938" />
<glyph unicode="&#x2003;" horiz-adv-x="1876" />
<glyph unicode="&#x2004;" horiz-adv-x="625" />
<glyph unicode="&#x2005;" horiz-adv-x="469" />
<glyph unicode="&#x2006;" horiz-adv-x="312" />
<glyph unicode="&#x2007;" horiz-adv-x="312" />
<glyph unicode="&#x2008;" horiz-adv-x="234" />
<glyph unicode="&#x2009;" horiz-adv-x="375" />
<glyph unicode="&#x200a;" horiz-adv-x="104" />
<glyph unicode="&#x2010;" horiz-adv-x="851" d="M100 432v211h652v-211h-652z" />
<glyph unicode="&#x2011;" horiz-adv-x="851" d="M100 432v211h652v-211h-652z" />
<glyph unicode="&#x2012;" horiz-adv-x="851" d="M100 432v211h652v-211h-652z" />
<glyph unicode="&#x2013;" horiz-adv-x="1050" d="M41 459v207h969v-207h-969z" />
<glyph unicode="&#x2014;" horiz-adv-x="2099" d="M41 459v207h2017v-207h-2017z" />
<glyph unicode="&#x2018;" horiz-adv-x="516" d="M111 944v273l157 280h127l-71 -270h65v-283h-278z" />
<glyph unicode="&#x2019;" horiz-adv-x="516" d="M111 944l71 268h-65v285h278v-274l-157 -279h-127z" />
<glyph unicode="&#x201a;" horiz-adv-x="565" d="M139 -270l72 270h-66v285h271v-275l-158 -280h-119z" />
<glyph unicode="&#x201c;" horiz-adv-x="768" d="M59 944v273l158 280h127l-72 -270h66v-283h-279zM418 944v273l157 280h127l-71 -270h65v-283h-278z" />
<glyph unicode="&#x201d;" horiz-adv-x="768" d="M70 944l71 268h-65v285h278v-274l-157 -279h-127zM428 944l72 268h-66v285h279v-274l-158 -279h-127z" />
<glyph unicode="&#x201e;" horiz-adv-x="933" d="M139 -270l72 270h-66v285h281v-275l-158 -280h-129zM500 -270l71 270h-65v285h278v-275l-157 -280h-127z" />
<glyph unicode="&#x2020;" horiz-adv-x="999" d="M43 764v188h344v473h227v-473h342v-188h-342v-1126h-227v1126h-344z" />
<glyph unicode="&#x2021;" horiz-adv-x="999" d="M43 236v188h344v340h-344v188h344v473h227v-473h342v-188h-342v-340h342v-188h-342v-598h-227v598h-344z" />
<glyph unicode="&#x2022;" horiz-adv-x="907" d="M174 561q0 61 22.5 115.5t62.5 94.5t94.5 63.5t115.5 23.5t115.5 -23.5t94.5 -63.5t63.5 -94t23.5 -116q0 -61 -23.5 -115.5t-63.5 -94.5t-94.5 -63.5t-115.5 -23.5t-115.5 23.5t-94.5 63.5t-62.5 94.5t-22.5 115.5z" />
<glyph unicode="&#x2026;" horiz-adv-x="1882" d="M172 0v283h279v-283h-279zM803 0v283h278v-283h-278zM1419 0v283h279v-283h-279z" />
<glyph unicode="&#x202f;" horiz-adv-x="375" />
<glyph unicode="&#x2039;" horiz-adv-x="720" d="M94 467l281 410h223l-272 -410l272 -410h-223z" />
<glyph unicode="&#x203a;" horiz-adv-x="720" d="M94 57l273 410l-273 410h223l279 -410l-279 -410h-223z" />
<glyph unicode="&#x205f;" horiz-adv-x="469" />
<glyph unicode="&#x20ac;" d="M31 522v144h84v82h-84v143h84q0 18 1 35.5t3 34.5q8 102 47 188t101.5 148.5t146.5 97.5t186 35q166 0 281.5 -82t171.5 -230l-224 -90q-31 78 -91 123t-136 45q-66 0 -111 -25.5t-72.5 -68.5t-42 -98.5t-18.5 -112.5h385v-143h-387v-82h387v-144h-385q2 -61 17.5 -117.5 t45.5 -97.5t75 -65.5t106 -24.5q84 0 141.5 45t96.5 131l223 -86q-66 -147 -177.5 -233t-285.5 -86q-209 0 -336 119.5t-145 343.5q-2 18 -3 35.5t-1 35.5h-84z" />
<glyph unicode="&#x2122;" horiz-adv-x="1753" d="M76 1268v157h680v-157h-254v-688h-172v688h-254zM854 580v845h150l241 -530l232 530h149v-845h-158v471l-163 -355h-127l-162 361v-477h-162z" />
<glyph unicode="&#x25ca;" horiz-adv-x="1085" d="M96 649q18 37 47 92.5t62 120t69.5 133t69.5 133t61.5 120t47.5 91.5h155l353 -690l-355 -688h-153zM305 651q20 -39 51 -100.5t64 -126t63.5 -125.5t48.5 -100q20 41 50 101t62 123.5t60.5 124t49.5 101.5l-226 455q-20 -41 -49.5 -101.5t-61.5 -125t-61.5 -125 t-50.5 -101.5z" />
<glyph unicode="&#x25fc;" horiz-adv-x="1013" d="M0 0v1014h1014v-1014h-1014z" />
</font>
</defs>
</svg>
